# xmcd
#
# Track frame offsets:
#	150
#	12456
#	23173
#	36777
#	51846
#	68124
#	84457
#	99554
#	111253
#	121878
#	132903
#	150119
#	166181
#	177638
#	191692
#
# Disc length: 2675 seconds
#
# Revision: 0
# Processed by: cddbd v1.5.2PL0 Copyright (c) Steve Scherf et al.
# Submitted via: dBpowerAMP V4.0
#
DISCID=bf0a710f
DTITLE=Country Boys - Sing Bluegrass and Gospel
DYEAR=2006
DGENRE=Bluegrass
TTITLE0=Redwood Hill
TTITLE1=A Place Prepared For Me
TTITLE2=I Shall Be At Home With Jesus
TTITLE3=Memory of You
TTITLE4=Little Bessie
TTITLE5=I Will Trade the Old Cross For A Crown
TTITLE6=Bringing Mary Home
TTITLE7=One Kiss Away From Loneliness
TTITLE8=Lord Don't Leave Me Here
TTITLE9=I'll Talk It All Over With Him
TTITLE10=Come and Sit By the River
TTITLE11=April's Green
TTITLE12=Some Day
TTITLE13=When I've Traveled My Last Mile
TTITLE14=Walking Down the Line
EXTD=Bluegrass and Gospel\n\nSubmitted by Rich Price
EXTT0=
EXTT1=
EXTT2=
EXTT3=
EXTT4=
EXTT5=
EXTT6=
EXTT7=
EXTT8=
EXTT9=
EXTT10=
EXTT11=
EXTT12=
EXTT13=
EXTT14=
PLAYORDER=
